<svg xmlns="http://www.w3.org/2000/svg" xmlns:xlink="http://www.w3.org/1999/xlink" version="1.1" x="0px" y="0px" viewBox="0 0 33 41.25" enable-background="new 0 0 33 33" xml:space="preserve"><path d="M20.01,6.892c-6.021,0-10.902,3.579-10.902,7.996c0,1.937,0.939,3.713,2.502,5.097v4.738l3.035-2.878  c1.586,0.659,3.414,1.04,5.365,1.04c6.023,0,10.904-3.58,10.904-7.996C30.914,10.471,26.033,6.892,20.01,6.892z M14.537,16.342  c-0.805,0-1.453-0.65-1.453-1.454s0.648-1.455,1.453-1.455c0.803,0,1.453,0.651,1.453,1.455S15.34,16.342,14.537,16.342z   M20.01,16.342c-0.803,0-1.453-0.65-1.453-1.454s0.65-1.455,1.453-1.455s1.455,0.651,1.455,1.455S20.813,16.342,20.01,16.342z   M25.484,16.342c-0.803,0-1.453-0.65-1.453-1.454s0.65-1.455,1.453-1.455s1.453,0.651,1.453,1.455S26.287,16.342,25.484,16.342z"/><path d="M19.912,24.604v3.108H4.207V3.484h15.705v1.688c0.033,0,0.064-0.004,0.098-0.004c0.691,0,1.363,0.054,2.025,0.137V2.798  c0-1.27-1.029-2.298-2.299-2.298H4.383c-1.27,0-2.299,1.029-2.299,2.298v27.403c0,1.269,1.029,2.298,2.299,2.298h15.354  c1.27,0,2.299-1.029,2.299-2.298v-5.731c-0.662,0.083-1.334,0.137-2.025,0.137C19.977,24.607,19.945,24.604,19.912,24.604z   M13.4,30.68h-2.682c-0.424,0-0.766-0.343-0.766-0.766c0-0.424,0.342-0.767,0.766-0.767H13.4c0.422,0,0.766,0.343,0.766,0.767  C14.166,30.337,13.822,30.68,13.4,30.68z"/></svg>