<svg xmlns="http://www.w3.org/2000/svg" xmlns:xlink="http://www.w3.org/1999/xlink" version="1.1" x="0px" y="0px" viewBox="0 0 100 125" enable-background="new 0 0 100 100" xml:space="preserve"><path d="M61.6,75.3v4.4c0,1.4-1.1,2.5-2.5,2.5H21.6c-1.4,0-2.5-1.1-2.5-2.5V20.4c0-1.4,1.1-2.5,2.5-2.5h37.5c1.4,0,2.5,1.1,2.5,2.5  v0.4h0v1.9c0.9-0.1,1.7-0.1,2.6-0.1c0.9,0,1.7,0,2.6,0.1v-8.4c0-5.4-4.4-9.8-9.8-9.8H23.7c-5.4,0-9.8,4.4-9.8,9.8v71.3  c0,5.4,4.4,9.8,9.8,9.8H57c5.4,0,9.8-4.4,9.8-9.8V75.3c-0.8,0.1-1.7,0.1-2.6,0.1C63.4,75.4,62.5,75.3,61.6,75.3z M44.6,91.3h-9.4  c-1.4,0-2.5-1.1-2.5-2.5c0-1.4,1.1-2.5,2.5-2.5h9.4c1.4,0,2.5,1.1,2.5,2.5C47.1,90.2,46,91.3,44.6,91.3z M48.8,33.5  c-8.2,8.2-8.5,21.4-0.9,29.9l0.2,0.2c-0.8,1.8-2.2,4-4.5,5.1c-0.7,0.4-0.6,1.5,0.2,1.6c2.5,0.4,6,0,9.3-2.5l0,0  c8.4,4.9,19.3,3.8,26.5-3.4c8.5-8.5,8.5-22.4,0-30.9S57.3,25,48.8,33.5z M64.2,65.7c-9.2,0-16.7-7.5-16.7-16.7  c0-9.2,7.5-16.7,16.7-16.7c9.2,0,16.7,7.5,16.7,16.7C80.9,58.2,73.5,65.7,64.2,65.7z M66.6,49c0,1.3-1.1,2.4-2.4,2.4  c-1.3,0-2.4-1.1-2.4-2.4c0-1.3,1.1-2.4,2.4-2.4C65.5,46.6,66.6,47.7,66.6,49z M74.9,49c0,1.3-1.1,2.4-2.4,2.4  c-1.3,0-2.4-1.1-2.4-2.4c0-1.3,1.1-2.4,2.4-2.4C73.8,46.6,74.9,47.7,74.9,49z M58.3,49c0,1.3-1.1,2.4-2.4,2.4  c-1.3,0-2.4-1.1-2.4-2.4c0-1.3,1.1-2.4,2.4-2.4C57.2,46.6,58.3,47.7,58.3,49z"/></svg>