<svg xmlns="http://www.w3.org/2000/svg" xmlns:xlink="http://www.w3.org/1999/xlink" version="1.1" x="0px" y="0px" viewBox="0 0 16 20" style="enable-background:new 0 0 16 16;" xml:space="preserve"><g><path d="M11,13H3V2l9,0c-0.003-1.1-0.903-2-2.004-2H4.004C2.902,0,2,0.902,2,2.004v11.992C2,15.099,2.902,16,4.004,16h5.992   C11.099,16,12,15.099,12,13.996V11h-1V13z M7,15.5c-0.553,0-1-0.448-1-1s0.447-1,1-1s1,0.448,1,1S7.553,15.5,7,15.5z"/><path d="M13.5,3h-6C6.122,3,5,4.122,5,5.5v2C5,8.878,6.122,10,7.5,10H8v1.5c0,0.202,0.122,0.385,0.309,0.462   C8.371,11.987,8.436,12,8.5,12c0.13,0,0.258-0.051,0.354-0.146L10.707,10H13.5c1.379,0,2.5-1.122,2.5-2.5v-2   C16,4.122,14.879,3,13.5,3z M15,7.5C15,8.327,14.327,9,13.5,9h-3.207L9,10.293V9H7.5h0C6.673,9,6,8.327,6,7.5v-2   C6,4.673,6.673,4,7.5,4h0h6C14.327,4,15,4.673,15,5.5V7.5z"/><circle cx="8.5" cy="6.5" r="0.5"/><circle cx="10.5" cy="6.5" r="0.5"/><circle cx="12.5" cy="6.5" r="0.5"/></g></svg>